<?xml version="1.0" standalone="no"?>
<!DOCTYPE svg PUBLIC "-//W3C//DTD SVG 20010904//EN"
 "http://www.w3.org/TR/2001/REC-SVG-20010904/DTD/svg10.dtd">
<svg version="1.0" xmlns="http://www.w3.org/2000/svg"
 width="950.000000pt" height="950.000000pt" viewBox="0 0 950.000000 950.000000"
 preserveAspectRatio="xMidYMid meet">
<metadata>
Created by potrace 1.14, written by Peter Selinger 2001-2017
</metadata>
<g transform="translate(0.000000,950.000000) scale(0.100000,-0.100000)"
fill="#000000" stroke="none">
<path d="M0 4750 l0 -4750 4750 0 4750 0 0 4750 0 4750 -4750 0 -4750 0 0
-4750z m7957 3260 c67 -41 64 21 61 -1036 l-3 -956 -37 -34 -38 -34 -3195 0
-3195 0 -38 34 -37 34 -3 956 c-3 1057 -6 995 61 1036 32 20 76 20 3212 20
3136 0 3180 0 3212 -20z m0 -2220 c68 -41 63 68 63 -1485 0 -1581 7 -1445 -75
-1485 -41 -20 -73 -20 -3200 -20 -3127 0 -3159 0 -3200 20 -82 40 -75 -96 -75
1485 0 1553 -5 1444 63 1485 32 20 76 20 3212 20 3136 0 3180 0 3212 -20z"/>
<path d="M1600 6990 l0 -910 3145 0 3145 0 0 910 0 910 -3145 0 -3145 0 0
-910z"/>
<path d="M1600 4310 l0 -1370 3145 0 3145 0 0 1370 0 1370 -3145 0 -3145 0 0
-1370z"/>
</g>
</svg>
